<?xml version="1.0" encoding="UTF-8"?>
<!DOCTYPE svg PUBLIC "-//W3C//DTD SVG 1.1//EN" "http://www.w3.org/Graphics/SVG/1.1/DTD/svg11.dtd">
<!-- Creator: CorelDRAW X7 -->
<svg xmlns="http://www.w3.org/2000/svg" xml:space="preserve" width="297mm" height="210mm" version="1.1" style="shape-rendering:geometricPrecision; text-rendering:geometricPrecision; image-rendering:optimizeQuality; fill-rule:evenodd; clip-rule:evenodd"
viewBox="0 0 29700 21000"
 xmlns:xlink="http://www.w3.org/1999/xlink">
 <defs>
  <style type="text/css">
   <![CDATA[
    .fil0 {fill:#FFC800;fill-rule:nonzero}
   ]]>
  </style>
 </defs>
 <g id="Layer_x0020_1">
  <metadata id="CorelCorpID_0Corel-Layer"/>
  <path class="fil0" d="M1345 12076c0,221 61,395 182,521 121,126 289,189 503,189 189,0 354,-57 493,-171 140,-114 209,-248 209,-401 0,-164 -153,-389 -461,-677l-223 -207c-285,-266 -428,-511 -428,-735 0,-261 102,-474 305,-643 203,-168 462,-252 777,-252 167,0 301,26 404,76 104,51 155,118 155,199 0,80 -37,173 -110,279 -118,-228 -310,-342 -576,-342 -166,0 -305,52 -418,154 -113,103 -170,229 -170,380 0,99 18,176 56,229 37,53 153,168 347,346l183 169c334,310 501,588 501,835 0,288 -114,526 -342,714 -228,190 -514,284 -861,284 -231,0 -423,-54 -574,-162 -151,-108 -227,-246 -227,-411 0,-112 92,-237 275,-374z"/>
  <path id="1" class="fil0" d="M4267 11624l-98 484c-34,170 -50,318 -50,443 0,79 17,151 53,216 -139,46 -244,69 -315,69 -112,0 -167,-64 -167,-191 0,-99 22,-261 67,-486l497 -2509c-124,45 -230,67 -318,67 -159,0 -238,-72 -238,-214 0,-48 13,-132 41,-253 99,100 217,150 357,150 180,0 392,-58 637,-175l-446 2291c214,-257 447,-486 697,-687 251,-200 429,-301 534,-301 64,0 135,90 216,271 -133,15 -315,89 -544,222 -229,133 -417,273 -563,418 341,540 638,810 893,810 119,0 236,-43 351,-129 114,-86 266,-246 456,-479 180,-222 327,-431 442,-625l169 98c-246,454 -507,822 -782,1102 -275,280 -512,420 -713,420 -165,0 -367,-103 -606,-308 -239,-206 -429,-440 -570,-704z"/>
  <path id="2" class="fil0" d="M7227 12773c-58,-363 -162,-722 -310,-1078 -149,-356 -309,-628 -482,-814 101,-85 204,-127 309,-127 91,0 167,41 227,123 61,82 136,247 227,495 143,389 249,742 320,1058 458,-725 706,-1359 744,-1901 238,35 356,114 356,238 0,130 -106,398 -320,802 -214,406 -444,777 -691,1114 -284,389 -568,696 -848,920 -281,224 -523,336 -725,336 -181,0 -272,-76 -272,-229 0,-62 16,-135 48,-219 75,47 167,69 277,69 398,0 778,-262 1140,-787z"/>
  <path id="3" class="fil0" d="M10934 12340c-44,134 -97,231 -158,292 -61,61 -215,114 -463,160 -247,46 -508,69 -783,69 -433,0 -649,-148 -649,-443 0,-83 23,-239 69,-470l396 -1995c23,-115 35,-198 35,-248 0,-46 -16,-89 -50,-128 181,-68 307,-102 378,-102 84,0 126,48 126,145 0,24 -22,143 -67,357l-355 1783c-52,256 -78,434 -78,534 0,170 188,255 564,255 335,0 680,-70 1035,-209z"/>
  <path id="4" class="fil0" d="M13060 11544c-175,359 -388,664 -643,915 -255,251 -476,377 -665,377 -144,0 -259,-64 -346,-192 -86,-128 -129,-299 -129,-511 0,-424 129,-798 386,-1120 258,-323 556,-484 894,-484 205,0 427,64 666,191 35,-126 179,-189 432,-189 16,0 43,1 79,2 -77,118 -136,279 -177,484l-34 173c-40,192 -59,418 -59,676 0,297 69,445 207,445 147,0 347,-122 601,-367 254,-245 503,-557 749,-936l158 111c-250,447 -538,820 -860,1119 -323,299 -601,448 -832,448 -293,0 -440,-244 -440,-732 0,-101 4,-238 13,-410zm95 -486c-285,-186 -521,-279 -710,-279 -205,0 -382,124 -531,373 -149,249 -224,544 -224,886 0,274 89,411 268,411 195,0 566,-426 1114,-1278 6,-11 35,-49 83,-113z"/>
  <path id="5" class="fil0" d="M16455 11533c-187,386 -397,700 -627,941 -231,241 -439,362 -622,362 -148,0 -268,-52 -360,-156 -93,-105 -139,-240 -139,-407 0,-214 72,-607 216,-1178 39,-154 59,-252 59,-292 0,-41 -14,-85 -39,-132l284 -2c122,0 184,46 184,139 0,59 -41,226 -121,502 -25,82 -41,139 -48,170l-31 124c-61,247 -92,436 -92,566 0,199 69,299 208,299 225,0 512,-279 860,-839 285,-456 427,-780 427,-974 0,-27 -8,-54 -24,-81 111,-31 205,-46 283,-46 119,0 178,37 178,109 0,18 -5,43 -16,77 -5,21 -18,70 -39,148 -2,16 -16,70 -40,165 -17,66 -30,119 -39,158l-20 97c-44,224 -66,433 -66,628 0,297 72,446 215,446 318,0 720,-446 1209,-1339l171 101c-555,1070 -1062,1604 -1523,1604 -309,0 -464,-269 -464,-807 0,-102 6,-230 16,-383z"/>
  <path id="6" class="fil0" d="M18538 12054c482,-1017 915,-1525 1299,-1525 299,0 449,298 449,892l4 246c0,284 15,480 44,589 29,109 83,163 160,163 117,0 250,-92 398,-277 149,-184 391,-555 726,-1113l172 99c-299,561 -567,978 -803,1250 -236,272 -449,408 -636,408 -172,0 -294,-83 -364,-249 -70,-167 -105,-455 -105,-865l0 -174c0,-222 -14,-378 -43,-468 -28,-90 -77,-135 -148,-135 -179,0 -468,356 -866,1069 -98,175 -161,287 -189,337 -105,182 -157,313 -157,393 0,33 9,64 26,94 -78,32 -145,48 -200,48 -136,0 -205,-76 -205,-228 0,-43 18,-238 53,-584l46 -442c20,-186 30,-331 30,-434 0,-144 -33,-256 -98,-339 28,-10 76,-27 142,-50 85,-32 151,-47 201,-47 106,0 159,77 159,232 0,81 -10,221 -30,418 -5,44 -8,85 -12,125l-53 567z"/>
  <path id="7" class="fil0" d="M22943 11595c-212,381 -434,684 -665,906 -231,223 -438,335 -620,335 -145,0 -260,-63 -345,-190 -86,-127 -129,-297 -129,-509 0,-428 128,-804 383,-1125 255,-322 552,-483 890,-483 202,0 422,64 661,193l215 -1092c-118,24 -218,37 -296,37 -119,0 -206,-29 -261,-86 -56,-56 -101,-163 -134,-318 97,66 247,100 449,100 251,0 492,-46 725,-138l-441 2226c-50,249 -75,461 -75,636 0,232 67,349 199,349 130,0 346,-152 648,-457 303,-304 555,-624 756,-957l167 106c-241,442 -542,837 -903,1185 -361,349 -649,523 -865,523 -273,0 -410,-219 -410,-659 0,-182 17,-376 51,-582zm108 -538c-282,-185 -517,-278 -704,-278 -203,0 -379,125 -528,374 -148,250 -222,545 -222,885 0,274 89,411 268,411 193,0 563,-427 1111,-1278 10,-15 35,-53 75,-114z"/>
  <path id="8" class="fil0" d="M24999 12771c-92,43 -167,65 -223,65 -139,0 -208,-61 -208,-183 0,-63 24,-218 73,-466l100 -506c62,-301 94,-524 94,-669 0,-79 -23,-145 -67,-197 144,-50 261,-74 352,-74 96,0 143,61 143,181 0,75 -34,271 -102,588l-117 592c256,-497 513,-884 773,-1160 258,-275 494,-413 705,-413 74,0 139,21 193,64 54,43 81,95 81,155 0,95 -103,222 -308,378 -52,-107 -124,-160 -220,-160 -172,0 -391,183 -658,549 -165,228 -308,462 -431,704 -121,242 -182,414 -182,517l2 35z"/>
  <path id="9" class="fil0" d="M27611 12773c-58,-363 -161,-722 -310,-1078 -148,-356 -309,-628 -481,-814 100,-85 204,-127 309,-127 91,0 167,41 227,123 60,82 136,247 227,495 142,389 248,742 319,1058 459,-725 707,-1359 745,-1901 237,35 356,114 356,238 0,130 -107,398 -321,802 -213,406 -443,777 -690,1114 -285,389 -568,696 -848,920 -281,224 -523,336 -725,336 -182,0 -273,-76 -273,-229 0,-62 16,-135 49,-219 75,47 167,69 277,69 397,0 777,-262 1139,-787z"/>
 </g>
</svg>
